%TF.GenerationSoftware,KiCad,Pcbnew,8.0.3*%
%TF.CreationDate,2025-01-03T10:39:23+05:30*%
%TF.ProjectId,DualPowerSupply5,4475616c-506f-4776-9572-537570706c79,rev?*%
%TF.SameCoordinates,Original*%
%TF.FileFunction,Copper,L1,Top*%
%TF.FilePolarity,Positive*%
%FSLAX46Y46*%
G04 Gerber Fmt 4.6, Leading zero omitted, Abs format (unit mm)*
G04 Created by KiCad (PCBNEW 8.0.3) date 2025-01-03 10:39:23*
%MOMM*%
%LPD*%
G01*
G04 APERTURE LIST*
%ADD10C,0.300000*%
%TA.AperFunction,NonConductor*%
%ADD11C,0.300000*%
%TD*%
%TA.AperFunction,NonConductor*%
%ADD12C,0.200000*%
%TD*%
%TA.AperFunction,ComponentPad*%
%ADD13R,3.000000X3.000000*%
%TD*%
%TA.AperFunction,ComponentPad*%
%ADD14O,2.000000X2.000000*%
%TD*%
%TA.AperFunction,ComponentPad*%
%ADD15R,3.000000X2.000000*%
%TD*%
%TA.AperFunction,ComponentPad*%
%ADD16O,3.000000X2.000000*%
%TD*%
%TA.AperFunction,ComponentPad*%
%ADD17O,3.000000X3.000000*%
%TD*%
%TA.AperFunction,ComponentPad*%
%ADD18C,1.803400*%
%TD*%
%TA.AperFunction,ComponentPad*%
%ADD19O,2.000000X3.000000*%
%TD*%
%TA.AperFunction,ComponentPad*%
%ADD20C,3.000000*%
%TD*%
%TA.AperFunction,ComponentPad*%
%ADD21R,3.200000X3.200000*%
%TD*%
%TA.AperFunction,ComponentPad*%
%ADD22O,3.200000X3.200000*%
%TD*%
%TA.AperFunction,ComponentPad*%
%ADD23C,3.200000*%
%TD*%
G04 APERTURE END LIST*
D10*
D11*
X75227959Y-20078338D02*
X74370818Y-20076475D01*
X74799389Y-20077406D02*
X74802649Y-18577410D01*
X74802649Y-18577410D02*
X74659327Y-18791384D01*
X74659327Y-18791384D02*
X74516159Y-18933931D01*
X74516159Y-18933931D02*
X74373147Y-19005049D01*
X76656527Y-20081444D02*
X75799386Y-20079580D01*
X76227956Y-20080512D02*
X76231217Y-18580515D01*
X76231217Y-18580515D02*
X76087894Y-18794490D01*
X76087894Y-18794490D02*
X75944727Y-18937036D01*
X75944727Y-18937036D02*
X75801715Y-19008154D01*
X78016927Y-18584397D02*
X77302643Y-18582845D01*
X77302643Y-18582845D02*
X77229662Y-19296973D01*
X77229662Y-19296973D02*
X77301245Y-19225700D01*
X77301245Y-19225700D02*
X77444257Y-19154582D01*
X77444257Y-19154582D02*
X77801399Y-19155359D01*
X77801399Y-19155359D02*
X77944101Y-19227098D01*
X77944101Y-19227098D02*
X78015374Y-19298681D01*
X78015374Y-19298681D02*
X78086492Y-19441693D01*
X78086492Y-19441693D02*
X78085715Y-19798836D01*
X78085715Y-19798836D02*
X78013976Y-19941537D01*
X78013976Y-19941537D02*
X77942393Y-20012810D01*
X77942393Y-20012810D02*
X77799381Y-20083928D01*
X77799381Y-20083928D02*
X77442239Y-20083152D01*
X77442239Y-20083152D02*
X77299537Y-20011413D01*
X77299537Y-20011413D02*
X77228264Y-19939829D01*
X78728260Y-19943090D02*
X78799533Y-20014674D01*
X78799533Y-20014674D02*
X78727949Y-20085947D01*
X78727949Y-20085947D02*
X78656676Y-20014363D01*
X78656676Y-20014363D02*
X78728260Y-19943090D01*
X78728260Y-19943090D02*
X78727949Y-20085947D01*
X79731208Y-18588124D02*
X79874065Y-18588435D01*
X79874065Y-18588435D02*
X80016767Y-18660174D01*
X80016767Y-18660174D02*
X80088040Y-18731757D01*
X80088040Y-18731757D02*
X80159158Y-18874769D01*
X80159158Y-18874769D02*
X80229965Y-19160638D01*
X80229965Y-19160638D02*
X80229188Y-19517780D01*
X80229188Y-19517780D02*
X80157139Y-19803339D01*
X80157139Y-19803339D02*
X80085400Y-19946040D01*
X80085400Y-19946040D02*
X80013816Y-20017313D01*
X80013816Y-20017313D02*
X79870804Y-20088431D01*
X79870804Y-20088431D02*
X79727947Y-20088121D01*
X79727947Y-20088121D02*
X79585246Y-20016382D01*
X79585246Y-20016382D02*
X79513973Y-19944798D01*
X79513973Y-19944798D02*
X79442855Y-19801786D01*
X79442855Y-19801786D02*
X79372048Y-19515917D01*
X79372048Y-19515917D02*
X79372824Y-19158775D01*
X79372824Y-19158775D02*
X79444874Y-18873217D01*
X79444874Y-18873217D02*
X79516613Y-18730515D01*
X79516613Y-18730515D02*
X79588196Y-18659242D01*
X79588196Y-18659242D02*
X79731208Y-18588124D01*
X81159776Y-18591230D02*
X81302633Y-18591540D01*
X81302633Y-18591540D02*
X81445334Y-18663279D01*
X81445334Y-18663279D02*
X81516607Y-18734863D01*
X81516607Y-18734863D02*
X81587725Y-18877875D01*
X81587725Y-18877875D02*
X81658532Y-19163744D01*
X81658532Y-19163744D02*
X81657756Y-19520886D01*
X81657756Y-19520886D02*
X81585707Y-19806444D01*
X81585707Y-19806444D02*
X81513968Y-19949146D01*
X81513968Y-19949146D02*
X81442384Y-20020419D01*
X81442384Y-20020419D02*
X81299372Y-20091537D01*
X81299372Y-20091537D02*
X81156515Y-20091226D01*
X81156515Y-20091226D02*
X81013814Y-20019487D01*
X81013814Y-20019487D02*
X80942540Y-19947903D01*
X80942540Y-19947903D02*
X80871423Y-19804891D01*
X80871423Y-19804891D02*
X80800615Y-19519023D01*
X80800615Y-19519023D02*
X80801392Y-19161880D01*
X80801392Y-19161880D02*
X80873441Y-18876322D01*
X80873441Y-18876322D02*
X80945180Y-18733621D01*
X80945180Y-18733621D02*
X81016764Y-18662348D01*
X81016764Y-18662348D02*
X81159776Y-18591230D01*
X82588344Y-18594335D02*
X82731200Y-18594646D01*
X82731200Y-18594646D02*
X82873902Y-18666385D01*
X82873902Y-18666385D02*
X82945175Y-18737968D01*
X82945175Y-18737968D02*
X83016293Y-18880981D01*
X83016293Y-18880981D02*
X83087100Y-19166849D01*
X83087100Y-19166849D02*
X83086324Y-19523991D01*
X83086324Y-19523991D02*
X83014274Y-19809550D01*
X83014274Y-19809550D02*
X82942535Y-19952251D01*
X82942535Y-19952251D02*
X82870952Y-20023524D01*
X82870952Y-20023524D02*
X82727939Y-20094642D01*
X82727939Y-20094642D02*
X82585083Y-20094332D01*
X82585083Y-20094332D02*
X82442381Y-20022593D01*
X82442381Y-20022593D02*
X82371108Y-19951009D01*
X82371108Y-19951009D02*
X82299990Y-19807997D01*
X82299990Y-19807997D02*
X82229183Y-19522128D01*
X82229183Y-19522128D02*
X82229959Y-19164986D01*
X82229959Y-19164986D02*
X82302009Y-18879428D01*
X82302009Y-18879428D02*
X82373748Y-18736726D01*
X82373748Y-18736726D02*
X82445331Y-18665453D01*
X82445331Y-18665453D02*
X82588344Y-18594335D01*
X83588341Y-18596509D02*
X84516910Y-18598528D01*
X84516910Y-18598528D02*
X84015669Y-19168868D01*
X84015669Y-19168868D02*
X84229954Y-19169334D01*
X84229954Y-19169334D02*
X84372656Y-19241073D01*
X84372656Y-19241073D02*
X84443929Y-19312657D01*
X84443929Y-19312657D02*
X84515047Y-19455669D01*
X84515047Y-19455669D02*
X84514270Y-19812811D01*
X84514270Y-19812811D02*
X84442531Y-19955512D01*
X84442531Y-19955512D02*
X84370948Y-20026785D01*
X84370948Y-20026785D02*
X84227936Y-20097903D01*
X84227936Y-20097903D02*
X83799365Y-20096971D01*
X83799365Y-20096971D02*
X83656664Y-20025232D01*
X83656664Y-20025232D02*
X83585390Y-19953649D01*
X86299359Y-20102406D02*
X86301533Y-19102409D01*
X86301222Y-19245265D02*
X86372806Y-19173992D01*
X86372806Y-19173992D02*
X86515818Y-19102874D01*
X86515818Y-19102874D02*
X86730103Y-19103340D01*
X86730103Y-19103340D02*
X86872804Y-19175079D01*
X86872804Y-19175079D02*
X86943922Y-19318091D01*
X86943922Y-19318091D02*
X86942214Y-20103804D01*
X86943922Y-19318091D02*
X87015661Y-19175390D01*
X87015661Y-19175390D02*
X87158673Y-19104272D01*
X87158673Y-19104272D02*
X87372959Y-19104738D01*
X87372959Y-19104738D02*
X87515660Y-19176477D01*
X87515660Y-19176477D02*
X87586778Y-19319489D01*
X87586778Y-19319489D02*
X87585070Y-20105201D01*
X88299354Y-20106754D02*
X88301528Y-19106756D01*
X88301217Y-19249613D02*
X88372801Y-19178340D01*
X88372801Y-19178340D02*
X88515813Y-19107222D01*
X88515813Y-19107222D02*
X88730098Y-19107688D01*
X88730098Y-19107688D02*
X88872800Y-19179427D01*
X88872800Y-19179427D02*
X88943918Y-19322439D01*
X88943918Y-19322439D02*
X88942210Y-20108152D01*
X88943918Y-19322439D02*
X89015657Y-19179738D01*
X89015657Y-19179738D02*
X89158669Y-19108620D01*
X89158669Y-19108620D02*
X89372954Y-19109086D01*
X89372954Y-19109086D02*
X89515655Y-19180825D01*
X89515655Y-19180825D02*
X89586773Y-19323837D01*
X89586773Y-19323837D02*
X89585065Y-20109549D01*
D12*
X24501087Y-25750001D02*
X24512493Y-20503340D01*
X139501087Y-26000001D02*
X139512493Y-20753340D01*
X24511218Y-21089759D02*
X139511218Y-21339759D01*
X24511218Y-21089759D02*
X139511218Y-21339759D01*
X24511218Y-21089759D02*
X25638994Y-20505789D01*
X24511218Y-21089759D02*
X25636444Y-21678627D01*
X139511218Y-21339759D02*
X138383442Y-21923729D01*
X139511218Y-21339759D02*
X138385992Y-20750891D01*
D10*
D11*
X157478328Y-105910712D02*
X157478328Y-106767855D01*
X157478328Y-106339284D02*
X155978328Y-106339284D01*
X155978328Y-106339284D02*
X156192614Y-106482141D01*
X156192614Y-106482141D02*
X156335471Y-106624998D01*
X156335471Y-106624998D02*
X156406900Y-106767855D01*
X156478328Y-104624999D02*
X157478328Y-104624999D01*
X155906900Y-104982141D02*
X156978328Y-105339284D01*
X156978328Y-105339284D02*
X156978328Y-104410713D01*
X155978328Y-103124999D02*
X155978328Y-103839285D01*
X155978328Y-103839285D02*
X156692614Y-103910713D01*
X156692614Y-103910713D02*
X156621185Y-103839285D01*
X156621185Y-103839285D02*
X156549757Y-103696428D01*
X156549757Y-103696428D02*
X156549757Y-103339285D01*
X156549757Y-103339285D02*
X156621185Y-103196428D01*
X156621185Y-103196428D02*
X156692614Y-103124999D01*
X156692614Y-103124999D02*
X156835471Y-103053570D01*
X156835471Y-103053570D02*
X157192614Y-103053570D01*
X157192614Y-103053570D02*
X157335471Y-103124999D01*
X157335471Y-103124999D02*
X157406900Y-103196428D01*
X157406900Y-103196428D02*
X157478328Y-103339285D01*
X157478328Y-103339285D02*
X157478328Y-103696428D01*
X157478328Y-103696428D02*
X157406900Y-103839285D01*
X157406900Y-103839285D02*
X157335471Y-103910713D01*
X157335471Y-102410714D02*
X157406900Y-102339285D01*
X157406900Y-102339285D02*
X157478328Y-102410714D01*
X157478328Y-102410714D02*
X157406900Y-102482142D01*
X157406900Y-102482142D02*
X157335471Y-102410714D01*
X157335471Y-102410714D02*
X157478328Y-102410714D01*
X156121185Y-101767856D02*
X156049757Y-101696428D01*
X156049757Y-101696428D02*
X155978328Y-101553571D01*
X155978328Y-101553571D02*
X155978328Y-101196428D01*
X155978328Y-101196428D02*
X156049757Y-101053571D01*
X156049757Y-101053571D02*
X156121185Y-100982142D01*
X156121185Y-100982142D02*
X156264042Y-100910713D01*
X156264042Y-100910713D02*
X156406900Y-100910713D01*
X156406900Y-100910713D02*
X156621185Y-100982142D01*
X156621185Y-100982142D02*
X157478328Y-101839285D01*
X157478328Y-101839285D02*
X157478328Y-100910713D01*
X155978328Y-99553571D02*
X155978328Y-100267857D01*
X155978328Y-100267857D02*
X156692614Y-100339285D01*
X156692614Y-100339285D02*
X156621185Y-100267857D01*
X156621185Y-100267857D02*
X156549757Y-100125000D01*
X156549757Y-100125000D02*
X156549757Y-99767857D01*
X156549757Y-99767857D02*
X156621185Y-99625000D01*
X156621185Y-99625000D02*
X156692614Y-99553571D01*
X156692614Y-99553571D02*
X156835471Y-99482142D01*
X156835471Y-99482142D02*
X157192614Y-99482142D01*
X157192614Y-99482142D02*
X157335471Y-99553571D01*
X157335471Y-99553571D02*
X157406900Y-99625000D01*
X157406900Y-99625000D02*
X157478328Y-99767857D01*
X157478328Y-99767857D02*
X157478328Y-100125000D01*
X157478328Y-100125000D02*
X157406900Y-100267857D01*
X157406900Y-100267857D02*
X157335471Y-100339285D01*
X155978328Y-98553571D02*
X155978328Y-98410714D01*
X155978328Y-98410714D02*
X156049757Y-98267857D01*
X156049757Y-98267857D02*
X156121185Y-98196429D01*
X156121185Y-98196429D02*
X156264042Y-98125000D01*
X156264042Y-98125000D02*
X156549757Y-98053571D01*
X156549757Y-98053571D02*
X156906900Y-98053571D01*
X156906900Y-98053571D02*
X157192614Y-98125000D01*
X157192614Y-98125000D02*
X157335471Y-98196429D01*
X157335471Y-98196429D02*
X157406900Y-98267857D01*
X157406900Y-98267857D02*
X157478328Y-98410714D01*
X157478328Y-98410714D02*
X157478328Y-98553571D01*
X157478328Y-98553571D02*
X157406900Y-98696429D01*
X157406900Y-98696429D02*
X157335471Y-98767857D01*
X157335471Y-98767857D02*
X157192614Y-98839286D01*
X157192614Y-98839286D02*
X156906900Y-98910714D01*
X156906900Y-98910714D02*
X156549757Y-98910714D01*
X156549757Y-98910714D02*
X156264042Y-98839286D01*
X156264042Y-98839286D02*
X156121185Y-98767857D01*
X156121185Y-98767857D02*
X156049757Y-98696429D01*
X156049757Y-98696429D02*
X155978328Y-98553571D01*
X155978328Y-97125000D02*
X155978328Y-96982143D01*
X155978328Y-96982143D02*
X156049757Y-96839286D01*
X156049757Y-96839286D02*
X156121185Y-96767858D01*
X156121185Y-96767858D02*
X156264042Y-96696429D01*
X156264042Y-96696429D02*
X156549757Y-96625000D01*
X156549757Y-96625000D02*
X156906900Y-96625000D01*
X156906900Y-96625000D02*
X157192614Y-96696429D01*
X157192614Y-96696429D02*
X157335471Y-96767858D01*
X157335471Y-96767858D02*
X157406900Y-96839286D01*
X157406900Y-96839286D02*
X157478328Y-96982143D01*
X157478328Y-96982143D02*
X157478328Y-97125000D01*
X157478328Y-97125000D02*
X157406900Y-97267858D01*
X157406900Y-97267858D02*
X157335471Y-97339286D01*
X157335471Y-97339286D02*
X157192614Y-97410715D01*
X157192614Y-97410715D02*
X156906900Y-97482143D01*
X156906900Y-97482143D02*
X156549757Y-97482143D01*
X156549757Y-97482143D02*
X156264042Y-97410715D01*
X156264042Y-97410715D02*
X156121185Y-97339286D01*
X156121185Y-97339286D02*
X156049757Y-97267858D01*
X156049757Y-97267858D02*
X155978328Y-97125000D01*
X157478328Y-94839287D02*
X156478328Y-94839287D01*
X156621185Y-94839287D02*
X156549757Y-94767858D01*
X156549757Y-94767858D02*
X156478328Y-94625001D01*
X156478328Y-94625001D02*
X156478328Y-94410715D01*
X156478328Y-94410715D02*
X156549757Y-94267858D01*
X156549757Y-94267858D02*
X156692614Y-94196430D01*
X156692614Y-94196430D02*
X157478328Y-94196430D01*
X156692614Y-94196430D02*
X156549757Y-94125001D01*
X156549757Y-94125001D02*
X156478328Y-93982144D01*
X156478328Y-93982144D02*
X156478328Y-93767858D01*
X156478328Y-93767858D02*
X156549757Y-93625001D01*
X156549757Y-93625001D02*
X156692614Y-93553572D01*
X156692614Y-93553572D02*
X157478328Y-93553572D01*
X157478328Y-92839287D02*
X156478328Y-92839287D01*
X156621185Y-92839287D02*
X156549757Y-92767858D01*
X156549757Y-92767858D02*
X156478328Y-92625001D01*
X156478328Y-92625001D02*
X156478328Y-92410715D01*
X156478328Y-92410715D02*
X156549757Y-92267858D01*
X156549757Y-92267858D02*
X156692614Y-92196430D01*
X156692614Y-92196430D02*
X157478328Y-92196430D01*
X156692614Y-92196430D02*
X156549757Y-92125001D01*
X156549757Y-92125001D02*
X156478328Y-91982144D01*
X156478328Y-91982144D02*
X156478328Y-91767858D01*
X156478328Y-91767858D02*
X156549757Y-91625001D01*
X156549757Y-91625001D02*
X156692614Y-91553572D01*
X156692614Y-91553572D02*
X157478328Y-91553572D01*
D12*
X140000000Y-26500000D02*
X159186420Y-26500000D01*
X140000000Y-171750000D02*
X159186420Y-171750000D01*
X158600000Y-26500000D02*
X158600000Y-171750000D01*
X158600000Y-26500000D02*
X158600000Y-171750000D01*
X158600000Y-26500000D02*
X159186421Y-27626504D01*
X158600000Y-26500000D02*
X158013579Y-27626504D01*
X158600000Y-171750000D02*
X158013579Y-170623496D01*
X158600000Y-171750000D02*
X159186421Y-170623496D01*
D13*
%TO.P,C1,1*%
%TO.N,Net-(D1-+)*%
X106000000Y-117500000D03*
D14*
%TO.P,C1,2*%
%TO.N,GND*%
X111000000Y-117500000D03*
%TD*%
D15*
%TO.P,U2,1,ADJ*%
%TO.N,Net-(D3-K)*%
X77500000Y-61540000D03*
D16*
%TO.P,U2,2,VI*%
%TO.N,Net-(D1--)*%
X77500000Y-59000000D03*
%TO.P,U2,3,VO*%
%TO.N,Net-(D3-A)*%
X77500000Y-56460000D03*
%TD*%
D13*
%TO.P,J1,1,Pin_1*%
%TO.N,Net-(IC3-OUT)*%
X129000000Y-105500000D03*
D17*
%TO.P,J1,2,Pin_2*%
%TO.N,GND*%
X129000000Y-100500000D03*
%TO.P,J1,3,Pin_3*%
%TO.N,Net-(IC4-OUT)*%
X129000000Y-95500000D03*
%TD*%
%TO.P,R1,1*%
%TO.N,Net-(D2-K)*%
X58225000Y-148835000D03*
%TO.P,R1,2*%
%TO.N,Net-(D2-A)*%
X50605000Y-148835000D03*
%TD*%
D18*
%TO.P,T2,1,1*%
%TO.N,Net-(J2-Pin_3)*%
X54000004Y-87000070D03*
%TO.P,T2,5,5*%
%TO.N,Net-(J2-Pin_1)*%
X54000004Y-112000010D03*
%TO.P,T2,6,6*%
%TO.N,Net-(D1-Pad2)*%
X81500000Y-112000000D03*
%TO.P,T2,7,7*%
%TO.N,GND*%
X81500000Y-107000000D03*
%TO.P,T2,9,9*%
X81500000Y-92000121D03*
%TO.P,T2,10,10*%
%TO.N,Net-(D1-Pad3)*%
X81500000Y-87000070D03*
%TD*%
D17*
%TO.P,C4,1*%
%TO.N,Net-(D2-A)*%
X50915000Y-141585000D03*
D14*
%TO.P,C4,2*%
%TO.N,GND*%
X50915000Y-134085000D03*
%TD*%
D13*
%TO.P,IC3,1,NC*%
%TO.N,unconnected-(IC3-NC-Pad1)*%
X37815000Y-157026000D03*
D19*
%TO.P,IC3,2,SET*%
%TO.N,Net-(IC3-SET)*%
X39515000Y-152835000D03*
%TO.P,IC3,3,OUT*%
%TO.N,Net-(IC3-OUT)*%
X41215000Y-157026000D03*
%TO.P,IC3,4,VCONTROL*%
%TO.N,Net-(D2-K)*%
X42915000Y-152835000D03*
%TO.P,IC3,5,IN*%
%TO.N,Net-(D6-K)*%
X44615000Y-157026000D03*
%TD*%
D13*
%TO.P,C8,1*%
%TO.N,GND*%
X111000000Y-91560000D03*
D17*
%TO.P,C8,2*%
%TO.N,Net-(D1--)*%
X106000000Y-91560000D03*
%TD*%
D13*
%TO.P,J2,1,Pin_1*%
%TO.N,Net-(J2-Pin_1)*%
X35500000Y-105000000D03*
D20*
%TO.P,J2,2,Pin_2*%
%TO.N,unconnected-(J2-Pin_2-Pad2)*%
X35500000Y-100000000D03*
%TO.P,J2,3,Pin_3*%
%TO.N,Net-(J2-Pin_3)*%
X35500000Y-95000000D03*
%TD*%
D13*
%TO.P,C6,1*%
%TO.N,GND*%
X111000000Y-78000000D03*
D17*
%TO.P,C6,2*%
%TO.N,Net-(D1--)*%
X106000000Y-78000000D03*
%TD*%
%TO.P,R4,1*%
%TO.N,Net-(D3-K)*%
X36000000Y-64420000D03*
%TO.P,R4,2*%
%TO.N,Net-(D3-A)*%
X36000000Y-56800000D03*
%TD*%
D15*
%TO.P,U1,1,ADJ*%
%TO.N,Net-(D2-A)*%
X93500000Y-143500000D03*
D16*
%TO.P,U1,2,VO*%
%TO.N,Net-(D2-K)*%
X93500000Y-140960000D03*
%TO.P,U1,3,VI*%
%TO.N,Net-(D1-+)*%
X93500000Y-138420000D03*
%TD*%
D17*
%TO.P,C16,1*%
%TO.N,GND*%
X78500000Y-49500000D03*
%TO.P,C16,2*%
%TO.N,Net-(D3-A)*%
X78500000Y-42000000D03*
%TD*%
%TO.P,R2,1*%
%TO.N,Net-(D2-A)*%
X98690000Y-147500000D03*
%TO.P,R2,2*%
%TO.N,GND*%
X106310000Y-147500000D03*
%TD*%
D13*
%TO.P,D2,1,K*%
%TO.N,Net-(D2-K)*%
X58415000Y-134255000D03*
D17*
%TO.P,D2,2,A*%
%TO.N,Net-(D2-A)*%
X58415000Y-144415000D03*
%TD*%
D13*
%TO.P,IC4,1,~{SHDN}*%
%TO.N,Net-(D3-A)*%
X60191000Y-44700000D03*
D16*
%TO.P,IC4,2,GND*%
%TO.N,GND*%
X56000000Y-43000000D03*
%TO.P,IC4,3,IN*%
%TO.N,Net-(D3-A)*%
X60191000Y-41300000D03*
%TO.P,IC4,4,SENSE/ADJ*%
%TO.N,Net-(IC4-SENSE{slash}ADJ)*%
X56000000Y-39600000D03*
%TO.P,IC4,5,OUT*%
%TO.N,Net-(IC4-OUT)*%
X60191000Y-37900000D03*
%TD*%
D13*
%TO.P,C7,1*%
%TO.N,GND*%
X111000000Y-65500000D03*
D17*
%TO.P,C7,2*%
%TO.N,Net-(D1--)*%
X106000000Y-65500000D03*
%TD*%
%TO.P,C10,1*%
%TO.N,GND*%
X85500000Y-42000000D03*
%TO.P,C10,2*%
%TO.N,Net-(D1--)*%
X85500000Y-49500000D03*
%TD*%
%TO.P,R9,1*%
%TO.N,Net-(IC4-SENSE{slash}ADJ)*%
X44500000Y-43810000D03*
%TO.P,R9,2*%
%TO.N,Net-(IC4-OUT)*%
X44500000Y-36190000D03*
%TD*%
D13*
%TO.P,C9,1*%
%TO.N,Net-(D1-+)*%
X106000000Y-104500000D03*
D14*
%TO.P,C9,2*%
%TO.N,GND*%
X111000000Y-104500000D03*
%TD*%
D17*
%TO.P,C15,1*%
%TO.N,GND*%
X74750000Y-36000000D03*
%TO.P,C15,2*%
%TO.N,Net-(IC4-OUT)*%
X82250000Y-36000000D03*
%TD*%
D13*
%TO.P,D3,1,K*%
%TO.N,Net-(D3-K)*%
X43000000Y-65500000D03*
D17*
%TO.P,D3,2,A*%
%TO.N,Net-(D3-A)*%
X43000000Y-55340000D03*
%TD*%
%TO.P,R7,1*%
%TO.N,Net-(IC3-SET)*%
X36915000Y-141645000D03*
%TO.P,R7,2*%
%TO.N,GND*%
X36915000Y-134025000D03*
%TD*%
D13*
%TO.P,D4,1,K*%
%TO.N,Net-(D3-A)*%
X50000000Y-52340000D03*
D17*
%TO.P,D4,2,A*%
%TO.N,Net-(D1--)*%
X50000000Y-62500000D03*
%TD*%
%TO.P,R8,1*%
%TO.N,GND*%
X36500000Y-50000000D03*
%TO.P,R8,2*%
%TO.N,Net-(IC4-SENSE{slash}ADJ)*%
X36500000Y-42380000D03*
%TD*%
%TO.P,C12,1*%
%TO.N,Net-(D2-K)*%
X44415000Y-141585000D03*
%TO.P,C12,2*%
%TO.N,GND*%
X44415000Y-134085000D03*
%TD*%
D13*
%TO.P,D5,1,K*%
%TO.N,Net-(D1-+)*%
X64415000Y-133255000D03*
D17*
%TO.P,D5,2,A*%
%TO.N,Net-(D2-K)*%
X64415000Y-143415000D03*
%TD*%
%TO.P,R3,1*%
%TO.N,GND*%
X85000000Y-56880000D03*
%TO.P,R3,2*%
%TO.N,Net-(D3-K)*%
X85000000Y-64500000D03*
%TD*%
D13*
%TO.P,C2,1*%
%TO.N,Net-(D1-+)*%
X106000000Y-130000000D03*
D14*
%TO.P,C2,2*%
%TO.N,GND*%
X111000000Y-130000000D03*
%TD*%
D17*
%TO.P,C11,1*%
%TO.N,GND*%
X92000000Y-56940000D03*
%TO.P,C11,2*%
%TO.N,Net-(D3-K)*%
X92000000Y-64440000D03*
%TD*%
%TO.P,C14,1*%
%TO.N,Net-(IC3-OUT)*%
X45560000Y-164000000D03*
%TO.P,C14,2*%
%TO.N,GND*%
X38060000Y-164000000D03*
%TD*%
%TO.P,C3,1*%
%TO.N,Net-(D1-+)*%
X100000000Y-132000000D03*
%TO.P,C3,2*%
%TO.N,GND*%
X100000000Y-139500000D03*
%TD*%
%TO.P,C13,1*%
%TO.N,GND*%
X67500000Y-45750000D03*
%TO.P,C13,2*%
%TO.N,Net-(D3-A)*%
X67500000Y-38250000D03*
%TD*%
D21*
%TO.P,D6,1,K*%
%TO.N,Net-(D6-K)*%
X52065000Y-157335000D03*
D22*
%TO.P,D6,2,A*%
%TO.N,Net-(D2-K)*%
X64765000Y-157335000D03*
%TD*%
D21*
%TO.P,D1,1,+*%
%TO.N,Net-(D1-+)*%
X96500000Y-107240000D03*
D23*
%TO.P,D1,2*%
%TO.N,Net-(D1-Pad2)*%
X96500000Y-102160000D03*
%TO.P,D1,3*%
%TO.N,Net-(D1-Pad3)*%
X96500000Y-97080000D03*
%TO.P,D1,4,-*%
%TO.N,Net-(D1--)*%
X96500000Y-92000000D03*
%TD*%
M02*
