M48
; DRILL file {KiCad 8.0.3} date 2025-01-03T10:39:42+0530
; FORMAT={-:-/ absolute / inch / decimal}
; #@! TF.CreationDate,2025-01-03T10:39:42+05:30
; #@! TF.GenerationSoftware,Kicad,Pcbnew,8.0.3
; #@! TF.FileFunction,Plated,1,2,PTH
FMAT,2
INCH
; #@! TA.AperFunction,Plated,PTH,ComponentDrill
T1C0.0433
; #@! TA.AperFunction,Plated,PTH,ComponentDrill
T2C0.0510
; #@! TA.AperFunction,Plated,PTH,ComponentDrill
T3C0.0579
; #@! TA.AperFunction,Plated,PTH,ComponentDrill
T4C0.0630
%
G90
G05
T1
X1.3976Y-4.1339
X1.4173Y-2.2362
X1.4173Y-2.5362
X1.437Y-1.6685
X1.437Y-1.9685
X1.4533Y-5.2766
X1.4533Y-5.5766
X1.4888Y-6.1821
X1.4984Y-6.4567
X1.5557Y-6.0171
X1.6226Y-6.1821
X1.6896Y-6.0171
X1.6929Y-2.1787
X1.6929Y-2.5787
X1.7486Y-5.2789
X1.7486Y-5.5742
X1.752Y-1.4248
X1.752Y-1.7248
X1.7565Y-6.1821
X1.7937Y-6.4567
X1.9685Y-2.0606
X1.9685Y-2.4606
X1.9923Y-5.8596
X2.0045Y-5.2789
X2.0045Y-5.5742
X2.2047Y-1.5591
X2.2047Y-1.6929
X2.2923Y-5.8596
X2.2998Y-5.2856
X2.2998Y-5.6856
X2.3697Y-1.4921
X2.3697Y-1.626
X2.3697Y-1.7598
X2.536Y-5.2463
X2.536Y-5.6463
X2.6575Y-1.5059
X2.6575Y-1.8012
X2.9429Y-1.4173
X3.0512Y-2.2228
X3.0512Y-2.3228
X3.0512Y-2.4228
X3.0906Y-1.6535
X3.0906Y-1.9488
X3.2382Y-1.4173
X3.3465Y-2.2394
X3.3465Y-2.5394
X3.3661Y-1.6535
X3.3661Y-1.9488
X3.622Y-2.2417
X3.622Y-2.537
X3.6811Y-5.4496
X3.6811Y-5.5496
X3.6811Y-5.6496
X3.8854Y-5.8071
X3.937Y-5.1969
X3.937Y-5.4921
X4.1732Y-2.5787
X4.1732Y-3.0709
X4.1732Y-3.6047
X4.1732Y-4.1142
X4.1732Y-4.626
X4.1732Y-5.1181
X4.1854Y-5.8071
X4.3701Y-2.5787
X4.3701Y-3.0709
X4.3701Y-3.6047
X4.3701Y-4.1142
X4.3701Y-4.626
X4.3701Y-5.1181
X5.0787Y-3.7598
X5.0787Y-3.9567
X5.0787Y-4.1535
T2
X2.126Y-3.4252
X2.126Y-4.4094
X3.2087Y-3.4252
X3.2087Y-3.6221
X3.2087Y-4.2126
X3.2087Y-4.4094
T3
X1.3976Y-3.7402
X1.3976Y-3.937
T4
X2.0498Y-6.1943
X2.5498Y-6.1943
X3.7992Y-3.622
X3.7992Y-3.822
X3.7992Y-4.022
X3.7992Y-4.222
M30
