%TF.GenerationSoftware,KiCad,Pcbnew,8.0.3*%
%TF.CreationDate,2025-01-03T10:39:23+05:30*%
%TF.ProjectId,DualPowerSupply5,4475616c-506f-4776-9572-537570706c79,rev?*%
%TF.SameCoordinates,Original*%
%TF.FileFunction,Soldermask,Bot*%
%TF.FilePolarity,Negative*%
%FSLAX46Y46*%
G04 Gerber Fmt 4.6, Leading zero omitted, Abs format (unit mm)*
G04 Created by KiCad (PCBNEW 8.0.3) date 2025-01-03 10:39:23*
%MOMM*%
%LPD*%
G01*
G04 APERTURE LIST*
%ADD10R,3.000000X3.000000*%
%ADD11O,2.000000X2.000000*%
%ADD12R,3.000000X2.000000*%
%ADD13O,3.000000X2.000000*%
%ADD14O,3.000000X3.000000*%
%ADD15C,1.803400*%
%ADD16O,2.000000X3.000000*%
%ADD17C,3.000000*%
%ADD18R,3.200000X3.200000*%
%ADD19O,3.200000X3.200000*%
%ADD20C,3.200000*%
G04 APERTURE END LIST*
D10*
%TO.C,C1*%
X106000000Y-117500000D03*
D11*
X111000000Y-117500000D03*
%TD*%
D12*
%TO.C,U2*%
X77500000Y-61540000D03*
D13*
X77500000Y-59000000D03*
X77500000Y-56460000D03*
%TD*%
D10*
%TO.C,J1*%
X129000000Y-105500000D03*
D14*
X129000000Y-100500000D03*
X129000000Y-95500000D03*
%TD*%
%TO.C,R1*%
X58225000Y-148835000D03*
X50605000Y-148835000D03*
%TD*%
D15*
%TO.C,T2*%
X54000004Y-87000070D03*
X54000004Y-112000010D03*
X81500000Y-112000000D03*
X81500000Y-107000000D03*
X81500000Y-92000121D03*
X81500000Y-87000070D03*
%TD*%
D14*
%TO.C,C4*%
X50915000Y-141585000D03*
D11*
X50915000Y-134085000D03*
%TD*%
D10*
%TO.C,IC3*%
X37815000Y-157026000D03*
D16*
X39515000Y-152835000D03*
X41215000Y-157026000D03*
X42915000Y-152835000D03*
X44615000Y-157026000D03*
%TD*%
D10*
%TO.C,C8*%
X111000000Y-91560000D03*
D14*
X106000000Y-91560000D03*
%TD*%
D10*
%TO.C,J2*%
X35500000Y-105000000D03*
D17*
X35500000Y-100000000D03*
X35500000Y-95000000D03*
%TD*%
D10*
%TO.C,C6*%
X111000000Y-78000000D03*
D14*
X106000000Y-78000000D03*
%TD*%
%TO.C,R4*%
X36000000Y-64420000D03*
X36000000Y-56800000D03*
%TD*%
D12*
%TO.C,U1*%
X93500000Y-143500000D03*
D13*
X93500000Y-140960000D03*
X93500000Y-138420000D03*
%TD*%
D14*
%TO.C,C16*%
X78500000Y-49500000D03*
X78500000Y-42000000D03*
%TD*%
%TO.C,R2*%
X98690000Y-147500000D03*
X106310000Y-147500000D03*
%TD*%
D10*
%TO.C,D2*%
X58415000Y-134255000D03*
D14*
X58415000Y-144415000D03*
%TD*%
D10*
%TO.C,IC4*%
X60191000Y-44700000D03*
D13*
X56000000Y-43000000D03*
X60191000Y-41300000D03*
X56000000Y-39600000D03*
X60191000Y-37900000D03*
%TD*%
D10*
%TO.C,C7*%
X111000000Y-65500000D03*
D14*
X106000000Y-65500000D03*
%TD*%
%TO.C,C10*%
X85500000Y-42000000D03*
X85500000Y-49500000D03*
%TD*%
%TO.C,R9*%
X44500000Y-43810000D03*
X44500000Y-36190000D03*
%TD*%
D10*
%TO.C,C9*%
X106000000Y-104500000D03*
D11*
X111000000Y-104500000D03*
%TD*%
D14*
%TO.C,C15*%
X74750000Y-36000000D03*
X82250000Y-36000000D03*
%TD*%
D10*
%TO.C,D3*%
X43000000Y-65500000D03*
D14*
X43000000Y-55340000D03*
%TD*%
%TO.C,R7*%
X36915000Y-141645000D03*
X36915000Y-134025000D03*
%TD*%
D10*
%TO.C,D4*%
X50000000Y-52340000D03*
D14*
X50000000Y-62500000D03*
%TD*%
%TO.C,R8*%
X36500000Y-50000000D03*
X36500000Y-42380000D03*
%TD*%
%TO.C,C12*%
X44415000Y-141585000D03*
X44415000Y-134085000D03*
%TD*%
D10*
%TO.C,D5*%
X64415000Y-133255000D03*
D14*
X64415000Y-143415000D03*
%TD*%
%TO.C,R3*%
X85000000Y-56880000D03*
X85000000Y-64500000D03*
%TD*%
D10*
%TO.C,C2*%
X106000000Y-130000000D03*
D11*
X111000000Y-130000000D03*
%TD*%
D14*
%TO.C,C11*%
X92000000Y-56940000D03*
X92000000Y-64440000D03*
%TD*%
%TO.C,C14*%
X45560000Y-164000000D03*
X38060000Y-164000000D03*
%TD*%
%TO.C,C3*%
X100000000Y-132000000D03*
X100000000Y-139500000D03*
%TD*%
%TO.C,C13*%
X67500000Y-45750000D03*
X67500000Y-38250000D03*
%TD*%
D18*
%TO.C,D6*%
X52065000Y-157335000D03*
D19*
X64765000Y-157335000D03*
%TD*%
D18*
%TO.C,D1*%
X96500000Y-107240000D03*
D20*
X96500000Y-102160000D03*
X96500000Y-97080000D03*
X96500000Y-92000000D03*
%TD*%
M02*
